<svg width="136" height="136" viewBox="0 0 136 136" fill="none" xmlns="http://www.w3.org/2000/svg">
<circle cx="68" cy="68" r="68" fill="#F33434"/>
<path d="M136 68C136 79.5207 133.073 90.8525 127.494 100.932C121.914 111.011 113.865 119.508 104.103 125.625C94.3397 131.741 83.1828 135.277 71.679 135.9C60.1752 136.524 48.7017 134.214 38.3351 129.188C27.9685 124.162 19.0487 116.585 12.4129 107.167C5.77715 97.7497 1.64288 86.8005 0.398093 75.3473C-0.846691 63.894 0.838833 52.3123 5.29649 41.689C9.75414 31.0657 16.8378 21.749 25.8826 14.6134L68 68H136Z" fill="#8EDBAD"/>
<path d="M136 68C136 84.164 130.242 99.7995 119.759 112.103C109.275 124.406 94.7516 132.573 78.7925 135.138C62.8333 137.704 46.4822 134.5 32.671 126.102C18.8597 117.704 8.49167 104.661 3.42582 89.3114L68 68H136Z" fill="#344DF3"/>
<circle cx="68" cy="68" r="53" fill="#F3F3F3"/>
</svg>
