<svg width="21" height="17" viewBox="0 0 21 17" fill="none" xmlns="http://www.w3.org/2000/svg">
<path d="M11.045 2.13388L15.9822 7.07104H1.25C1.20685 7.07104 1.16422 7.07324 1.12219 7.07754C0.49187 7.14154 0 7.67384 0 8.32104C0 9.01145 0.55964 9.57104 1.25 9.57104H15.9822L11.045 14.5082C10.5569 14.9964 10.5569 15.7878 11.045 16.276C11.5332 16.7641 12.3246 16.7641 12.8128 16.276L19.8839 9.20494C20.372 8.71684 20.372 7.92534 19.8839 7.43714L12.8128 0.366115C12.8052 0.358485 12.7975 0.350985 12.7897 0.343595C12.7353 0.291865 12.6774 0.245985 12.6167 0.205945C12.2701 -0.0228854 11.8347 -0.0610156 11.4585 0.0915244C11.3081 0.152544 11.1671 0.244075 11.045 0.366115C11.0374 0.373745 11.0299 0.381445 11.0225 0.389215C10.557 0.878935 10.5645 1.65335 11.045 2.13388Z" fill="#616161"/>
</svg>
