<svg width="21" height="13" viewBox="0 0 21 13" fill="none" xmlns="http://www.w3.org/2000/svg">
<path d="M4.26777 4.11609L6.24998 2.13389C6.73814 1.64573 6.73814 0.85427 6.24998 0.36612C5.76182 -0.12204 4.97037 -0.12204 4.48221 0.36612L0.366113 4.48219C-0.122038 4.97039 -0.122038 5.76179 0.366113 6.24999L4.48221 10.3661C4.97037 10.8543 5.76182 10.8543 6.24998 10.3661C6.73814 9.87799 6.73814 9.08649 6.24999 8.59829L4.26776 6.61609H13.25C15.7895 6.61609 17.8635 8.60899 17.9935 11.1161C17.9935 11.8064 18.5556 12.3661 19.246 12.3661C19.9363 12.3661 20.496 11.8064 20.496 11.1161H20.4957C20.364 7.22779 17.1703 4.11609 13.25 4.11609H4.26777Z" fill="#767676"/>
</svg>
