<svg width="24" height="21" viewBox="0 0 24 21" fill="none" xmlns="http://www.w3.org/2000/svg">
<path fill-rule="evenodd" clip-rule="evenodd" d="M0 8C0 9.5545 0.498805 11.0055 1.36191 12.2333L0.494498 15.2693C0.278969 16.0236 0.976393 16.721 1.73074 16.5055L5.58545 15.4042C6.63839 15.7882 7.79137 16 9 16C13.9706 16 18 12.4183 18 8C18 3.58172 13.9706 0 9 0C4.02944 0 0 3.58172 0 8ZM3.76572 12.9201C3.97314 12.1942 3.84135 11.4133 3.40716 10.7956C2.81957 9.9597 2.5 9.0055 2.5 8C2.5 5.23112 5.1252 2.5 9 2.5C12.8748 2.5 15.5 5.23112 15.5 8C15.5 10.7689 12.8748 13.5 9 13.5C8.08401 13.5 7.22096 13.3396 6.44215 13.0555C5.94637 12.8747 5.40608 12.8554 4.89865 13.0003L3.64006 13.3599L3.76572 12.9201Z" fill="#767676"/>
<path d="M20.4997 7.99991C20.4997 8.34554 20.4821 8.68586 20.4477 9.0204C21.1243 9.911 21.4997 10.9528 21.4997 11.9999C21.4997 13.0054 21.1801 13.9596 20.5926 14.7955C20.1584 15.4132 20.0266 16.1941 20.234 16.92L20.3597 17.3598L19.1011 17.0003C18.5936 16.8553 18.0534 16.8746 17.5576 17.0554C16.7788 17.3395 15.9157 17.4999 14.9997 17.4999C14.6643 17.4999 14.3382 17.4794 14.0224 17.4403C12.6912 18.0304 11.2314 18.3916 9.71948 18.4791C11.2026 19.4358 13.0271 19.9999 14.9997 19.9999C16.2083 19.9999 17.3613 19.7881 18.4143 19.4041L22.269 20.5054C23.0233 20.7209 23.7208 20.0235 23.5052 19.2692L22.6378 16.2332C23.5009 15.0054 23.9997 13.5544 23.9997 11.9999C23.9997 9.2901 22.484 6.89501 20.1651 5.44788C20.3832 6.25762 20.4997 7.11122 20.4997 7.99991Z" fill="#767676"/>
</svg>
