<svg width="24" height="17" viewBox="0 0 24 17" fill="none" xmlns="http://www.w3.org/2000/svg">
<path fill-rule="evenodd" clip-rule="evenodd" d="M14.3158 0C10.1373 0 6.75 3.38732 6.75 7.5658C6.75 11.7443 10.1373 15.1316 14.3158 15.1316C15.9532 15.1316 17.4704 14.6104 18.7085 13.7263L21.3322 16.35C21.8204 16.8382 22.6118 16.8382 23.1 16.35C23.5882 15.8618 23.5882 15.0704 23.1 14.5822L20.4763 11.9585C21.3604 10.7204 21.8816 9.2032 21.8816 7.5658C21.8816 3.38732 18.4943 0 14.3158 0ZM9.25 7.5658C9.25 4.76803 11.518 2.5 14.3158 2.5C17.1135 2.5 19.3816 4.76803 19.3816 7.5658C19.3816 8.965 18.8159 10.2298 17.8978 11.1478C16.9798 12.0659 15.715 12.6316 14.3158 12.6316C11.518 12.6316 9.25 10.3635 9.25 7.5658Z" fill="black"/>
<path d="M0 13.25C0 12.5596 0.559644 12 1.25 12H4.75C5.44036 12 6 12.5596 6 13.25C6 13.9404 5.44036 14.5 4.75 14.5H1.25C0.559644 14.5 0 13.9404 0 13.25Z" fill="black"/>
<path d="M0 7.75C0 7.0596 0.559644 6.5 1.25 6.5H3.75C4.44036 6.5 5 7.0596 5 7.75C5 8.4404 4.44036 9 3.75 9H1.25C0.559644 9 0 8.4404 0 7.75Z" fill="black"/>
<path d="M0 2.25C0 1.55964 0.559644 1 1.25 1H4.75C5.44036 1 6 1.55964 6 2.25C6 2.94036 5.44036 3.5 4.75 3.5H1.25C0.559644 3.5 0 2.94036 0 2.25Z" fill="black"/>
</svg>
