<svg width="14" height="6" viewBox="0 0 14 6" fill="none" xmlns="http://www.w3.org/2000/svg">
<path d="M1.79511 0.229514L7.00001 4.10823L12.2049 0.229514C12.6155 -0.0765031 13.2814 -0.0765031 13.692 0.229514C14.1027 0.535537 14.1027 1.03169 13.692 1.33769L7.74358 5.77049C7.54631 5.91744 7.27888 6 7.00001 6C6.72114 6 6.45363 5.91744 6.25644 5.77049L0.307994 1.33769C0.256661 1.29945 0.211748 1.25826 0.173244 1.21475C-0.0962465 0.910624 -0.0513329 0.497284 0.307994 0.229514C0.359326 0.191261 0.414646 0.157791 0.472952 0.129105C0.881113 -0.071726 1.43578 -0.0382503 1.79511 0.229514Z" fill="#767676"/>
</svg>
