<svg width="18" height="22" viewBox="0 0 18 22" fill="none" xmlns="http://www.w3.org/2000/svg">
<path fill-rule="evenodd" clip-rule="evenodd" d="M1.33771 17H4.56299C4.56299 17.3728 4.56638 18.2787 5.0572 19.1698C5.81938 20.5535 7.2974 21.5 9 21.5C10.7026 21.5 12.1806 20.5535 12.9428 19.1698C13.4336 18.2787 13.437 17.3728 13.437 17H16.6623C17.4011 17 18 16.4011 18 15.6623V14.7893C18 14.2839 17.7992 13.7992 17.4419 13.4419C16.5187 12.5187 16 11.2665 16 9.9609V7C16 3.13401 12.866 0 9 0C5.13401 0 2 3.13401 2 7V9.9609C2 11.2665 1.48135 12.5187 0.55814 13.4419C0.20077 13.7992 0 14.2839 0 14.7893V15.6623C0 16.4011 0.59891 17 1.33771 17ZM13.5 9.9609C13.5 11.6124 14.0504 13.2072 15.0496 14.5H2.95045C3.94963 13.2072 4.5 11.6124 4.5 9.9609V7C4.5 4.51472 6.51472 2.5 9 2.5C11.4853 2.5 13.5 4.51472 13.5 7V9.9609ZM10.937 17H7.063C7.063 17.332 7.0868 17.6728 7.247 17.9636C7.5873 18.5814 8.2448 19 9 19C9.7552 19 10.4127 18.5814 10.753 17.9636C10.9132 17.6728 10.937 17.332 10.937 17Z" fill="black"/>
</svg>
