<svg width="24" height="16" viewBox="0 0 24 16" fill="none" xmlns="http://www.w3.org/2000/svg">
<path d="M11.875 5.875C11.875 6.9796 10.9796 7.875 9.875 7.875C8.77043 7.875 7.875 6.9796 7.875 5.875C7.875 4.77043 8.77043 3.875 9.875 3.875C10.9796 3.875 11.875 4.77043 11.875 5.875Z" fill="#767676"/>
<path fill-rule="evenodd" clip-rule="evenodd" d="M0 2C0 0.89543 0.895431 0 2 0H17.75C18.8546 0 19.75 0.89543 19.75 2V9.75C19.75 10.8546 18.8546 11.75 17.75 11.75H2C0.895431 11.75 0 10.8546 0 9.75V2ZM2.5 9.25V2.5H17.25V9.25H2.5Z" fill="#767676"/>
<path d="M19.75 13.5C20.7165 13.5 21.5 12.7165 21.5 11.75V5C21.5 4.30964 22.0596 3.75 22.75 3.75C23.4404 3.75 24 4.30964 24 5V11.75C24 14.0972 22.0972 16 19.75 16H4C3.30964 16 2.75 15.4404 2.75 14.75C2.75 14.0596 3.30964 13.5 4 13.5H19.75Z" fill="#767676"/>
</svg>
